inDegrees=yes
name=ik_lifting_orientations
DataType=double
version=3
OpenSimVersion=4.5-2024-01-10-34fd6af
endheader
time	pelvis_tilt	pelvis_list	pelvis_rotation	pelvis_tx	pelvis_ty	pelvis_tz	hip_flexion_r	hip_adduction_r	hip_rotation_r	knee_angle_r	knee_angle_r_beta	ankle_angle_r	subtalar_angle_r	mtp_angle_r	hip_flexion_l	hip_adduction_l	hip_rotation_l	knee_angle_l	knee_angle_l_beta	ankle_angle_l	subtalar_angle_l	mtp_angle_l	lumbar_extension	lumbar_bending	lumbar_rotation	arm_flex_r	arm_add_r	arm_rot_r	elbow_flex_r	pro_sup_r	wrist_flex_r	wrist_dev_r	arm_flex_l	arm_add_l	arm_rot_l	elbow_flex_l	pro_sup_l	wrist_flex_l	wrist_dev_l
1.91	-2.994015005044875	-2.291317497437007	-93.84705497450121	0	0.9399999998679526	0	45.09271937304745	-10.33493916121935	0	60.11567559215477	1.049216471143892	-5.049035153530705	0	0	45.09271937304745	-10.33493916121935	0	60.11567559215477	1.049216471143892	-5.049035153530705	0	0	-4.349477942147334	2.753844775270473	54.04892973350533	123.7199914611451	-22.92891530950559	53.07301304472518	42.51847203988154	2.059419664835722	0	0	0	-10.53157046604468	0	87.98420685231746	2.059419664835722	0	0
1.92	-2.940705303612897	-1.410425098315145	-94.41452501518582	0	0.9399999998679526	0	45.09268419895149	-10.33449470135909	0	60.11564122211897	1.049215871273604	-5.048950264967392	0	0	45.09268419895149	-10.33449470135909	0	60.11564122211897	1.049215871273604	-5.048950264967392	0	0	-3.548200473214434	2.70630906123003	54.79709785654021	123.7617942316016	-23.69819034585153	52.40042664352342	42.26402320394808	2.058876003908933	0	0	0	-10.53243927419262	0	87.98473893981803	2.058876003908933	0	0
1.93	-3.028271769957912	-1.1565359135624	-94.19299328702667	0	0.9399999998679526	0	45.09265577828216	-10.33413557920377	0	60.11561346807753	1.0492153868742	-5.048881688993055	0	0	45.09265577828216	-10.33413557920377	0	60.11561346807753	1.0492153868742	-5.048881688993055	0	0	-3.357177671897154	2.832021674975854	54.64291640038644	123.4718693909196	-24.33250947432185	51.80858679234774	42.23540579139321	2.058436796534436	0	0	0	-10.53314104395403	0	87.98516879736178	2.058436796534436	0	0
1.94	-3.388864572598766	-0.4072615815470361	-92.95534673966309	0	0.9399999998679526	0	45.09211421157707	-10.32945901445355	0	60.11494104968007	1.049203650959213	-5.048062987401242	0	0	45.09211421157707	-10.32945901445355	0	60.11494104968007	1.049203650959213	-5.048062987401242	0	0	-2.677502733910505	3.288099556821821	53.5142072075617	122.4808180545803	-23.73823560889415	50.80897247246921	39.79594243002655	2.049209332469277	0	0	0	-10.54906207960204	0	87.99419992140825	2.049209332469277	0	0
1.95	-3.592989600078789	-0.1597227242388619	-92.04911639332521	0	0.9399999998679526	0	45.09208114644979	-10.32904597843684	0	60.11490869752565	1.049203086307599	-5.047984403479732	0	0	45.09208114644979	-10.32904597843684	0	60.11490869752565	1.049203086307599	-5.047984403479732	0	0	-2.640205936985358	3.535039631745934	52.67005977545401	122.2012426446052	-22.87542959003018	50.72119077180914	38.41681742907039	2.048697233585902	0	0	0	-10.549881607104	0	87.99470111891054	2.048697233585902	0	0
1.96	-3.679761045126593	-0.09524649969891649	-91.63869104686758	0	0.9399999998679526	0	45.09204800360796	-10.32863096663207	0	60.11487635047	1.049202521744974	-5.04790542119363	0	0	45.09204800360796	-10.32863096663207	0	60.11487635047	1.049202521744974	-5.04790542119363	0	0	-2.821153144345419	3.615160653356749	52.03575925420074	121.2646182580687	-23.09276011872497	50.25831283099325	38.68027300864545	2.048184388823497	0	0	0	-10.55070168969179	0	87.99520304636653	2.048184388823497	0	0
1.97	-3.689906351870305	0.1596438469017329	-91.33656137848614	0	0.9399999998679526	0	45.09201327966911	-10.32819675667337	0	60.11484244530385	1.049201929988191	-5.047822825335614	0	0	45.09201327966911	-10.32819675667337	0	60.11484244530385	1.049201929988191	-5.047822825335614	0	0	-2.599968802145294	3.654431944690469	51.67556701498773	120.3693521308936	-23.52989495630114	49.75017123097755	38.78851531886548	2.047646942525144	0	0	0	-10.55156127319791	0	87.99572905166387	2.047646942525144	0	0
1.98	-3.507211047222782	0.460128827452597	-91.66718390989575	0	0.9399999998679526	0	45.09144464187277	-10.32331019960573	0	60.11413941017693	1.04918965971047	-5.046969649759342	0	0	45.09144464187277	-10.32331019960573	0	60.11413941017693	1.04918965971047	-5.046969649759342	0	0	-2.55858461937132	3.475361303602593	50.94843211212342	119.1921057286993	-24.51048750303666	48.54225929107907	40.3434687558433	2.037956697655794	0	0	0	-10.56827978226733	0	88.00521310951865	2.037956697655794	0	0
